<svg id="Capa_1" enable-background="new 0 0 512 512" height="512" viewBox="0 0 512 512" width="512" xmlns="http://www.w3.org/2000/svg" xmlns:xlink="http://www.w3.org/1999/xlink"><linearGradient id="SVGID_1_" gradientUnits="userSpaceOnUse" x1="256" x2="256" y1="512" y2="0"><stop offset="0" stop-color="#ffbef9"/><stop offset="1" stop-color="#fff1ff"/></linearGradient><linearGradient id="SVGID_2_" gradientUnits="userSpaceOnUse" x1="256.015" x2="256.015" y1="124.739" y2="387.261"><stop offset="0" stop-color="#a93aff"/><stop offset="1" stop-color="#ff81ff"/></linearGradient><g><g><circle cx="256" cy="256" fill="url(#SVGID_1_)" r="256"/></g><g><g><path d="m263.726 128.833c-3.157-5.459-12.264-5.459-15.421 0l-142.104 245.32c-1.57 2.712-1.561 6.041.026 8.744 1.596 2.704 4.519 4.364 7.685 4.364h284.207c3.166 0 6.089-1.66 7.685-4.364 1.587-2.704 1.596-6.032.026-8.744zm53.523 183.494c-.824 1.626-20.686 39.888-61.234 39.888s-60.41-38.263-61.234-39.888c-1.249-2.464-1.249-5.373 0-7.837.824-1.626 20.686-39.888 61.234-39.888s60.41 38.263 61.234 39.888c1.249 2.464 1.249 5.373 0 7.837zm-61.234-30.203c-22.906 0-37.521 18.096-42.959 26.284 5.438 8.188 20.053 26.284 42.959 26.284s37.521-18.096 42.959-26.284c-5.438-8.188-20.053-26.284-42.959-26.284zm0 35.045c-4.906 0-8.881-3.923-8.881-8.761 0-4.839 3.976-8.761 8.881-8.761s8.881 3.923 8.881 8.761-3.976 8.761-8.881 8.761zm-142.103-35.045h17.763c4.909 0 8.881-3.919 8.881-8.762s-3.972-8.761-8.881-8.761h-17.763c-4.909 0-8.881 3.919-8.881 8.761-.001 4.843 3.972 8.762 8.881 8.762zm257.562-8.762c0 4.843 3.972 8.762 8.881 8.762h17.763c4.909 0 8.882-3.919 8.882-8.762s-3.972-8.761-8.882-8.761h-17.763c-4.908 0-8.881 3.919-8.881 8.761zm-57.729-98.634c4.209 2.398 9.656 1.012 12.134-3.209l8.881-15.178c2.455-4.193.997-9.549-3.253-11.97-4.25-2.43-9.679-.992-12.134 3.208l-8.881 15.179c-2.454 4.192-.997 9.548 3.253 11.97zm-185.236 36.132 15.386 8.761c4.206 2.397 9.653 1.015 12.134-3.208 2.455-4.192.997-9.549-3.253-11.97l-15.386-8.761c-4.259-2.413-9.688-.975-12.134 3.208-2.454 4.193-.997 9.549 3.253 11.97zm57.643-39.341c2.482 4.227 7.931 5.603 12.134 3.209 4.25-2.421 5.707-7.778 3.253-11.97l-8.881-15.179c-2.472-4.201-7.91-5.638-12.134-3.208-4.25 2.421-5.707 7.778-3.253 11.97zm181.983 48.103 15.386-8.761c4.25-2.421 5.707-7.778 3.253-11.97-2.463-4.184-7.901-5.621-12.134-3.208l-15.386 8.761c-4.25 2.421-5.707 7.778-3.252 11.97 2.481 4.226 7.93 5.602 12.133 3.208z" fill="url(#SVGID_2_)"/></g></g></g></svg>